<svg xmlns="http://www.w3.org/2000/svg" xmlns:xlink="http://www.w3.org/1999/xlink" width="500" zoomAndPan="magnify" viewBox="0 0 375 374.999991" height="500" preserveAspectRatio="xMidYMid meet" version="1.0"><defs><clipPath id="4ac61ce7c8"><path d="M 25.226562 0 L 349.976562 0 L 349.976562 375 L 25.226562 375 Z M 25.226562 0 " clip-rule="nonzero"/></clipPath></defs><g clip-path="url(#4ac61ce7c8)"><path fill="#05d584" d="M 188.164062 82.738281 L 133.449219 114.769531 L 133.449219 73.398438 L 188.164062 41.371094 L 313.609375 114.769531 L 313.609375 260.230469 L 188.164062 333.628906 L 61.382812 260.230469 L 61.382812 156.140625 L 25.351562 177.492188 L 25.351562 281.582031 L 106.757812 328.292969 L 188.164062 375 L 269.570312 328.292969 L 349.640625 281.582031 L 349.640625 93.417969 L 269.570312 46.707031 L 188.164062 0 L 106.757812 46.707031 L 97.417969 52.046875 L 97.417969 240.214844 L 188.164062 292.261719 L 277.578125 240.214844 L 241.542969 218.859375 L 188.164062 249.554688 L 133.449219 218.859375 L 133.449219 156.140625 L 188.164062 125.445312 L 241.542969 156.140625 L 277.578125 134.785156 Z M 61.382812 114.769531 L 61.382812 73.398438 L 25.351562 93.417969 L 25.351562 134.785156 Z M 61.382812 114.769531 " fill-opacity="1" fill-rule="evenodd"/></g></svg>